<?xml version="1.0" encoding="UTF-8" standalone="no"?>
<svg
   xmlns:dc="http://purl.org/dc/elements/1.1/"
   xmlns:cc="http://creativecommons.org/ns#"
   xmlns:rdf="http://www.w3.org/1999/02/22-rdf-syntax-ns#"
   xmlns:svg="http://www.w3.org/2000/svg"
   xmlns="http://www.w3.org/2000/svg"
   version="1.1"
   x="0px"
   y="0px"
   viewBox="0 0 600 120"
   enable-background="new 0 0 95 95"
   xml:space="preserve"
   id="svg8"
   width="600"
   height="120"><metadata
   id="metadata14"><rdf:RDF><cc:Work
       rdf:about=""><dc:format>image/svg+xml</dc:format><dc:type
         rdf:resource="http://purl.org/dc/dcmitype/StillImage" /><dc:title></dc:title></cc:Work></rdf:RDF></metadata><defs
   id="defs12">


</defs>
<g
   transform="translate(3.6699554,0.28325)"
   id="g51"><g
     aria-label="LibreOps"
     style="font-style:normal;font-weight:normal;font-size:98.52217102px;line-height:49.26108551px;font-family:sans-serif;letter-spacing:0px;word-spacing:0px;fill:#d40000;fill-opacity:1;stroke:none;stroke-width:2.46305418px;stroke-linecap:butt;stroke-linejoin:miter;stroke-opacity:1"
     id="text4526"><path
       d="m 194.01355,30.484533 h 0.7216 q 3.27124,0.673491 3.27124,2.886391 v 58.978605 h 29.68173 q 2.9345,0 3.46367,3.800415 -0.96213,3.271244 -3.46367,3.271244 H 194.3984 q -2.79018,0 -3.46367,-3.656096 V 34.477374 q 0.43296,-3.992841 3.07882,-3.992841 z"
       style="fill:#000000;stroke-width:2.46305418px"
       id="path21" /><path
       d="m 245.15079,37.556192 q 3.46367,0.865918 3.46367,3.078818 v 1.058344 q 0,2.549646 -3.80041,3.078818 -2.45344,0 -3.27125,-3.60799 0.7216,-3.60799 3.60799,-3.60799 z m 0,12.315272 q 3.46367,0.865917 3.46367,3.078818 v 43.199662 q 0,2.693966 -3.46367,3.271244 h -0.19242 q -2.74208,0 -3.41557,-3.607989 V 54.008625 q 0.43296,-4.137161 3.60799,-4.137161 z"
       style="fill:#000000;stroke-width:2.46305418px"
       id="path23" /><path
       d="m 264.20097,30.532639 h 0.52918 q 3.27124,0.721598 3.27124,3.126924 v 23.620306 q 7.93758,-7.648938 17.84752,-7.648938 9.5732,0 17.41457,7.264086 7.45651,7.841364 7.45651,17.606989 0,13.999 -13.2774,22.032791 -5.72468,2.886391 -11.06451,2.886391 h -1.44319 q -10.05427,0 -18.71344,-9.428879 -5.29172,-7.07166 -5.29172,-16.741072 V 33.659563 q 0,-2.405326 3.27124,-3.126924 z m 3.80042,43.440196 v 0.914024 q 0,11.112608 11.64178,16.548646 3.12692,0.914024 5.62846,0.914024 h 1.10645 q 10.82397,0 16.35622,-11.64178 0.91403,-3.511777 0.91403,-5.436038 v -1.10645 q 0,-11.064502 -11.83421,-16.548646 -3.60799,-0.914024 -5.62846,-0.914024 h -0.7216 q -10.82397,0 -16.35622,11.449354 -1.10645,3.223137 -1.10645,5.82089 z"
       style="fill:#000000;stroke-width:2.46305418px"
       id="path25" /><path
       d="m 325.05573,49.823357 q 3.46367,0.865918 3.46367,3.078818 v 3.992842 q 7.93758,-7.07166 16.98161,-7.07166 4.85876,0 10.3429,2.35722 1.4432,1.491302 1.4432,2.886392 v 0.192426 q -0.57728,3.415563 -3.41557,3.415563 h -0.19242 q -4.95498,-1.587515 -7.45652,-1.587515 h -1.05834 q -10.63154,0 -15.58651,11.016395 -1.05835,2.934498 -1.05835,6.686808 v 21.359298 q 0,2.693966 -3.46367,3.271244 h -0.19242 q -2.74208,0 -3.41557,-3.607989 V 54.008625 q 0.43296,-4.185268 3.60799,-4.185268 z"
       style="fill:#000000;stroke-width:2.46305418px"
       id="path27" /><path
       d="m 387.25748,50.111996 q 14.23953,0 22.129,13.517935 2.69397,5.291718 2.69397,11.49746 v 0.914024 q -0.62539,3.60799 -3.41556,3.60799 h -37.95606 q 2.11669,7.167873 9.14025,10.968289 4.13716,1.587515 7.74515,1.587515 4.18526,0 9.5732,-2.693966 h 1.05834 q 3.22314,0.625385 3.22314,3.271244 v 0.529172 q 0,4.425801 -12.94066,6.109529 h -1.25077 q -13.2774,0 -21.26309,-12.411484 -3.22313,-5.868997 -3.22313,-12.267165 0,-13.517935 12.79633,-21.551725 6.20575,-3.078818 11.68989,-3.078818 z m -17.12592,22.513856 h 34.58859 q 0,-3.704203 -4.32959,-9.573199 -5.9171,-5.580358 -11.68988,-5.580358 h -1.97237 q -8.65918,0 -14.23953,8.466749 -1.92426,3.367457 -2.35722,6.686808 z"
       style="fill:#000000;stroke-width:2.46305418px"
       id="path29" /><path
       d="m 453.6926,30.388319 q 17.46267,0 29.20066,16.163794 5.29172,9.188347 5.29172,18.521014 0,17.270244 -15.63462,28.719597 -8.8516,5.628464 -18.52101,5.628464 h -0.7216 q -17.79942,0 -29.05634,-16.548646 -5.0993,-8.370536 -5.0993,-18.136161 0,-16.500539 14.52818,-27.805574 9.42888,-6.542488 20.01231,-6.542488 z m -27.46883,34.877234 q 0,13.181189 11.64178,22.17711 7.26409,4.906866 15.4422,4.906866 h 0.91402 q 12.89255,0 21.79226,-11.449354 5.09929,-7.360299 5.09929,-16.019474 0,-14.864918 -13.61414,-23.572199 -6.73492,-3.848523 -13.80658,-3.848523 -13.61415,0 -22.56196,11.834206 -4.90687,7.07166 -4.90687,15.971368 z"
       style="font-style:normal;font-variant:normal;font-weight:normal;font-stretch:normal;font-family:Comfortaa;-inkscape-font-specification:Comfortaa;fill:#d40000;fill-opacity:1;stroke-width:2.46305418px"
       id="path31" /><path
       d="m 521.33038,50.352529 q 9.42888,0 17.07781,7.119766 7.3122,7.697045 7.3122,17.270244 0,13.710361 -12.98877,21.551725 -5.62846,2.838285 -10.87207,2.838285 h -1.4432 q -8.46675,0 -16.54864,-7.312192 v 24.582433 q 0,2.26101 -3.55989,3.03071 -2.54964,0 -3.36745,-3.55988 V 76.330055 q 0,-18.472908 17.46267,-24.919182 2.16479,-0.673492 6.92734,-1.058344 z m -17.27025,23.860838 v 0.914024 q 0,9.717519 9.42888,15.10545 3.41557,1.779942 7.31219,1.779942 h 1.05835 q 10.15048,0 15.4903,-10.487223 1.25077,-3.319351 1.25077,-6.398169 v -0.914024 q 0,-8.130003 -7.45651,-13.71036 -4.4258,-3.030712 -10.00616,-3.030712 -11.0645,0 -16.16379,11.593674 -0.91403,2.838285 -0.91403,5.147398 z"
       style="font-style:normal;font-variant:normal;font-weight:normal;font-stretch:normal;font-family:Comfortaa;-inkscape-font-specification:Comfortaa;fill:#d40000;fill-opacity:1;stroke-width:2.46305418px"
       id="path33" /><path
       d="m 571.89035,50.496849 q 12.36337,0 19.43503,11.208821 l 0.14432,1.395089 v 0.192426 q 0,2.838285 -3.55988,3.367457 -2.35722,0 -4.81065,-4.089055 -4.95498,-4.810653 -11.20882,-4.810653 -8.22622,0 -12.98877,7.841365 l -0.14432,0.914024 q 0,2.35722 5.33983,2.838285 20.49338,4.954972 22.41764,5.67657 5.1474,3.367457 5.1474,8.562962 v 0.14432 q 0,7.408405 -10.87208,13.566041 -4.66633,2.116687 -9.95805,2.116687 -10.82397,0 -18.32859,-10.150477 -0.72159,-1.058344 -0.72159,-1.972368 v -1.058344 q 0,-2.597752 3.94473,-3.030711 1.68373,0 4.81066,4.473907 4.76254,4.425801 11.01639,4.425801 7.50462,0 12.45959,-7.119766 l 0.33675,-1.058344 V 83.73846 q 0,-2.309113 -3.17503,-2.645859 -23.90895,-5.339825 -25.30404,-6.590595 -4.4258,-3.367457 -4.4258,-8.178109 0,-6.734915 9.76563,-12.988763 5.38793,-2.838285 10.67965,-2.838285 z"
       style="font-style:normal;font-variant:normal;font-weight:normal;font-stretch:normal;font-family:Comfortaa;-inkscape-font-specification:Comfortaa;fill:#d40000;fill-opacity:1;stroke-width:2.46305418px"
       id="path35" /></g><g
     id="g827"><path
   d="m 150.72991,51.325318 c -1.82832,0 -3.60538,0.217859 -5.31836,0.602318 0.004,-0.20718 0.0299,-0.401546 0.0299,-0.602318 0,-16.074672 -13.0289,-29.101434 -29.10144,-29.101434 -6.45678,0 -12.40308,2.129478 -17.232321,5.689998 C 94.74836,11.839211 80.094057,0 62.635332,0 41.74424,0 24.806673,16.939705 24.806673,37.832931 c 0,4.797198 0.931247,9.367992 2.560927,13.594909 -0.670669,-0.05767 -1.345608,-0.102528 -2.029092,-0.102528 -13.443263,6e-6 -24.34054879,10.89729 -24.34054879,24.338415 0,13.441124 10.89728579,24.336271 24.33840879,24.336271 H 150.72991 c 13.44111,0 24.3384,-10.897283 24.3384,-24.338407 0,-13.441124 -10.89729,-24.336273 -24.3384,-24.336273 z"
   id="path2"
   style="stroke-width:2.135885" /><text
   xml:space="preserve"
   style="font-style:normal;font-weight:normal;font-size:69.15629578px;line-height:34.57814789px;font-family:sans-serif;letter-spacing:0px;word-spacing:0px;fill:#000000;fill-opacity:1;stroke:none;stroke-width:1.72890735px;stroke-linecap:butt;stroke-linejoin:miter;stroke-opacity:1"
   x="47.542381"
   y="78.513107"
   id="text4563"><tspan
     id="tspan4561"
     x="47.542381"
     y="78.513107"
     style="font-style:normal;font-variant:normal;font-weight:bold;font-stretch:normal;font-family:Comfortaa;-inkscape-font-specification:'Comfortaa Bold';fill:#d40000;fill-opacity:1;stroke:none;stroke-width:1.72890735px;stroke-opacity:1">&gt;_</tspan></text>

</g></g>
</svg>